<?xml version="1.0" encoding="UTF-8" standalone="no"?>
<!DOCTYPE svg PUBLIC "-//W3C//DTD SVG 1.1//EN"
 "http://www.w3.org/Graphics/SVG/1.1/DTD/svg11.dtd">
<!-- Generated by graphviz version 2.40.1 (20161225.0304)
 -->
<!-- Title: %0 Pages: 1 -->
<svg width="722pt" height="922pt"
 viewBox="0.00 0.00 721.73 922.00" xmlns="http://www.w3.org/2000/svg" xmlns:xlink="http://www.w3.org/1999/xlink">
<g id="graph0" class="graph" transform="scale(1 1) rotate(0) translate(144 778)">
<title>%0</title>
<polygon fill="#ffffff" stroke="transparent" points="-144,144 -144,-778 577.7322,-778 577.7322,144 -144,144"/>
<!-- multiplayergames -->
<g id="node1" class="node">
<title>multiplayergames</title>
<polygon fill="#4477c9" stroke="transparent" points="349.7322,-310 349.7322,-468 427.7322,-468 427.7322,-310 349.7322,-310"/>
<polygon fill="#add8e6" stroke="transparent" points="349.7322,-450 349.7322,-468 427.7322,-468 427.7322,-450 349.7322,-450"/>
<polygon fill="none" stroke="#000000" points="349.7322,-450 349.7322,-468 427.7322,-468 427.7322,-450 349.7322,-450"/>
<text text-anchor="start" x="354.2406" y="-456.9" font-family="Times,serif" font-weight="bold" font-style="italic" font-size="9.00" fill="#000000"> multiplayergames </text>
<polygon fill="none" stroke="#000000" points="349.7322,-430 349.7322,-450 427.7322,-450 427.7322,-430 349.7322,-430"/>
<text text-anchor="start" x="354.7322" y="-436.9" font-family="Times,serif" font-size="9.00" fill="#000000">gameID: Number</text>
<polygon fill="none" stroke="#000000" points="349.7322,-410 349.7322,-430 427.7322,-430 427.7322,-410 349.7322,-410"/>
<text text-anchor="start" x="354.7322" y="-416.9" font-family="Times,serif" font-size="9.00" fill="#000000">winner: ObjectId</text>
<polygon fill="none" stroke="#000000" points="349.7322,-390 349.7322,-410 427.7322,-410 427.7322,-390 349.7322,-390"/>
<text text-anchor="start" x="354.7322" y="-396.9" font-family="Times,serif" font-size="9.00" fill="#000000">loser: ObjectId</text>
<polygon fill="none" stroke="#000000" points="349.7322,-370 349.7322,-390 427.7322,-390 427.7322,-370 349.7322,-370"/>
<text text-anchor="start" x="354.6195" y="-376.9" font-family="Times,serif" font-size="9.00" fill="#000000">winnerStats: Array</text>
<polygon fill="none" stroke="#000000" points="349.7322,-350 349.7322,-370 427.7322,-370 427.7322,-350 349.7322,-350"/>
<text text-anchor="start" x="354.7322" y="-356.9" font-family="Times,serif" font-size="9.00" fill="#000000">loserStats: Array</text>
<polygon fill="none" stroke="#000000" points="349.7322,-330 349.7322,-350 427.7322,-350 427.7322,-330 349.7322,-330"/>
<text text-anchor="start" x="354.7322" y="-336.9" font-family="Times,serif" font-size="9.00" fill="#000000">_id: ObjectId</text>
<polygon fill="none" stroke="#000000" points="349.7322,-310 349.7322,-330 427.7322,-330 427.7322,-310 349.7322,-310"/>
<text text-anchor="start" x="354.7322" y="-316.9" font-family="Times,serif" font-size="9.00" fill="#000000">__v: Number</text>
</g>
<!-- puzzles -->
<g id="node2" class="node">
<title>puzzles</title>
<polygon fill="#4477c9" stroke="transparent" points="343.7322,0 343.7322,-238 433.7322,-238 433.7322,0 343.7322,0"/>
<polygon fill="#add8e6" stroke="transparent" points="343.7322,-220 343.7322,-238 433.7322,-238 433.7322,-220 343.7322,-220"/>
<polygon fill="none" stroke="#000000" points="343.7322,-220 343.7322,-238 433.7322,-238 433.7322,-220 343.7322,-220"/>
<text text-anchor="start" x="372.989" y="-226.9" font-family="Times,serif" font-weight="bold" font-style="italic" font-size="9.00" fill="#000000"> puzzles </text>
<polygon fill="none" stroke="#000000" points="343.7322,-200 343.7322,-220 433.7322,-220 433.7322,-200 343.7322,-200"/>
<text text-anchor="start" x="348.7322" y="-206.9" font-family="Times,serif" font-size="9.00" fill="#000000">puzzleName: String</text>
<polygon fill="none" stroke="#000000" points="343.7322,-180 343.7322,-200 433.7322,-200 433.7322,-180 343.7322,-180"/>
<text text-anchor="start" x="348.7322" y="-186.9" font-family="Times,serif" font-size="9.00" fill="#000000">username: String</text>
<polygon fill="none" stroke="#000000" points="343.7322,-160 343.7322,-180 433.7322,-180 433.7322,-160 343.7322,-160"/>
<text text-anchor="start" x="348.7322" y="-166.9" font-family="Times,serif" font-size="9.00" fill="#000000">ships: Array</text>
<polygon fill="none" stroke="#000000" points="343.7322,-140 343.7322,-160 433.7322,-160 433.7322,-140 343.7322,-140"/>
<text text-anchor="start" x="348.7322" y="-146.9" font-family="Times,serif" font-size="9.00" fill="#000000">rating: Number</text>
<polygon fill="none" stroke="#000000" points="343.7322,-120 343.7322,-140 433.7322,-140 433.7322,-120 343.7322,-120"/>
<text text-anchor="start" x="348.3636" y="-126.9" font-family="Times,serif" font-size="9.00" fill="#000000">ratingsCount: Number</text>
<polygon fill="none" stroke="#000000" points="343.7322,-100 343.7322,-120 433.7322,-120 433.7322,-100 343.7322,-100"/>
<text text-anchor="start" x="348.7322" y="-106.9" font-family="Times,serif" font-size="9.00" fill="#000000">difficulty: String</text>
<polygon fill="none" stroke="#000000" points="343.7322,-80 343.7322,-100 433.7322,-100 433.7322,-80 343.7322,-80"/>
<text text-anchor="start" x="348.7322" y="-86.9" font-family="Times,serif" font-size="9.00" fill="#000000">size: Number</text>
<polygon fill="none" stroke="#000000" points="343.7322,-60 343.7322,-80 433.7322,-80 433.7322,-60 343.7322,-60"/>
<text text-anchor="start" x="348.7322" y="-66.9" font-family="Times,serif" font-size="9.00" fill="#000000">userId: ObjectId</text>
<polygon fill="none" stroke="#000000" points="343.7322,-40 343.7322,-60 433.7322,-60 433.7322,-40 343.7322,-40"/>
<text text-anchor="start" x="348.7322" y="-46.9" font-family="Times,serif" font-size="9.00" fill="#000000">timesPlayed: Number</text>
<polygon fill="none" stroke="#000000" points="343.7322,-20 343.7322,-40 433.7322,-40 433.7322,-20 343.7322,-20"/>
<text text-anchor="start" x="348.7322" y="-26.9" font-family="Times,serif" font-size="9.00" fill="#000000">_id: ObjectId</text>
<polygon fill="none" stroke="#000000" points="343.7322,0 343.7322,-20 433.7322,-20 433.7322,0 343.7322,0"/>
<text text-anchor="start" x="348.7322" y="-6.9" font-family="Times,serif" font-size="9.00" fill="#000000">__v: Number</text>
</g>
<!-- users -->
<g id="node3" class="node">
<title>users</title>
<polygon fill="#4477c9" stroke="transparent" points="0,-296 0,-634 138,-634 138,-296 0,-296"/>
<polygon fill="#add8e6" stroke="transparent" points="0,-616 0,-634 138,-634 138,-616 0,-616"/>
<polygon fill="none" stroke="#000000" points="0,-616 0,-634 138,-634 138,-616 0,-616"/>
<text text-anchor="start" x="57.5043" y="-622.9" font-family="Times,serif" font-weight="bold" font-style="italic" font-size="9.00" fill="#000000"> users </text>
<polygon fill="none" stroke="#000000" points="0,-596 0,-616 138,-616 138,-596 0,-596"/>
<text text-anchor="start" x="5" y="-602.9" font-family="Times,serif" font-size="9.00" fill="#000000">username: String</text>
<polygon fill="none" stroke="#000000" points="0,-576 0,-596 138,-596 138,-576 0,-576"/>
<text text-anchor="start" x="5" y="-582.9" font-family="Times,serif" font-size="9.00" fill="#000000">email: String</text>
<polygon fill="none" stroke="#000000" points="0,-556 0,-576 138,-576 138,-556 0,-556"/>
<text text-anchor="start" x="5" y="-562.9" font-family="Times,serif" font-size="9.00" fill="#000000">password: String</text>
<polygon fill="none" stroke="#000000" points="0,-536 0,-556 138,-556 138,-536 0,-536"/>
<text text-anchor="start" x="5" y="-542.9" font-family="Times,serif" font-size="9.00" fill="#000000">OverallshotsTaken: Number</text>
<polygon fill="none" stroke="#000000" points="0,-516 0,-536 138,-536 138,-516 0,-516"/>
<text text-anchor="start" x="5" y="-522.9" font-family="Times,serif" font-size="9.00" fill="#000000">OverallshotsHit: Number</text>
<polygon fill="none" stroke="#000000" points="0,-496 0,-516 138,-516 138,-496 0,-496"/>
<text text-anchor="start" x="4.8894" y="-502.9" font-family="Times,serif" font-size="9.00" fill="#000000">OverallTimeSpentPlaying: Number</text>
<polygon fill="none" stroke="#000000" points="0,-476 0,-496 138,-496 138,-476 0,-476"/>
<text text-anchor="start" x="5" y="-482.9" font-family="Times,serif" font-size="9.00" fill="#000000">OverallTurnsTaken: Number</text>
<polygon fill="none" stroke="#000000" points="0,-456 0,-476 138,-476 138,-456 0,-456"/>
<text text-anchor="start" x="5" y="-462.9" font-family="Times,serif" font-size="9.00" fill="#000000">MPshotsTaken: Number</text>
<polygon fill="none" stroke="#000000" points="0,-436 0,-456 138,-456 138,-436 0,-436"/>
<text text-anchor="start" x="5" y="-442.9" font-family="Times,serif" font-size="9.00" fill="#000000">MPshotsHit: Number</text>
<polygon fill="none" stroke="#000000" points="0,-416 0,-436 138,-436 138,-416 0,-416"/>
<text text-anchor="start" x="5" y="-422.9" font-family="Times,serif" font-size="9.00" fill="#000000">MPturnsTaken: Number</text>
<polygon fill="none" stroke="#000000" points="0,-396 0,-416 138,-416 138,-396 0,-396"/>
<text text-anchor="start" x="5" y="-402.9" font-family="Times,serif" font-size="9.00" fill="#000000">MPWins: Number</text>
<polygon fill="none" stroke="#000000" points="0,-376 0,-396 138,-396 138,-376 0,-376"/>
<text text-anchor="start" x="5" y="-382.9" font-family="Times,serif" font-size="9.00" fill="#000000">MPLosses: Number</text>
<polygon fill="none" stroke="#000000" points="0,-356 0,-376 138,-376 138,-356 0,-356"/>
<text text-anchor="start" x="5" y="-362.9" font-family="Times,serif" font-size="9.00" fill="#000000">completedPuzzles: Array</text>
<polygon fill="none" stroke="#000000" points="0,-336 0,-356 138,-356 138,-336 0,-336"/>
<text text-anchor="start" x="5" y="-342.9" font-family="Times,serif" font-size="9.00" fill="#000000">multiplayerBattles: Array</text>
<polygon fill="none" stroke="#000000" points="0,-316 0,-336 138,-336 138,-316 0,-316"/>
<text text-anchor="start" x="5" y="-322.9" font-family="Times,serif" font-size="9.00" fill="#000000">_id: ObjectId</text>
<polygon fill="none" stroke="#000000" points="0,-296 0,-316 138,-316 138,-296 0,-296"/>
<text text-anchor="start" x="5" y="-302.9" font-family="Times,serif" font-size="9.00" fill="#000000">__v: Number</text>
</g>
<!-- users&#45;&gt;multiplayergames -->
<g id="edge1" class="edge">
<title>users:14&#45;&gt;multiplayergames:1</title>
<path fill="none" stroke="#000000" stroke-dasharray="5,2" d="M138,-326C155.8885,-326 157.7843,-336.4467 174,-344 251.1366,-379.9304 264.6379,-420 349.7322,-420"/>
<text text-anchor="middle" x="240.8661" y="-419.2" font-family="Times,serif" font-size="14.00" fill="#000000">users&#45;multiplayergames</text>
<text text-anchor="middle" x="344.6789" y="-407.4" font-family="Times,serif" font-size="14.00" fill="#000000">N</text>
<text text-anchor="middle" x="141.5" y="-313.4" font-family="Times,serif" font-size="14.00" fill="#000000">1</text>
</g>
<!-- users&#45;&gt;multiplayergames -->
<g id="edge2" class="edge">
<title>users:14&#45;&gt;multiplayergames:2</title>
<path fill="none" stroke="#000000" stroke-dasharray="5,2" d="M138,-326C154.2829,-326 157.788,-320.7177 174,-319.2 233.1778,-313.66 256.9285,-288.3506 307.7322,-319.2 342.3266,-340.2067 309.2593,-400 349.7322,-400"/>
<text text-anchor="middle" x="240.8661" y="-323.2" font-family="Times,serif" font-size="14.00" fill="#000000">users&#45;multiplayergames</text>
<text text-anchor="middle" x="344.6789" y="-387.4" font-family="Times,serif" font-size="14.00" fill="#000000">N</text>
<text text-anchor="middle" x="141.5" y="-330.2" font-family="Times,serif" font-size="14.00" fill="#000000">1</text>
</g>
<!-- users&#45;&gt;puzzles -->
<g id="edge3" class="edge">
<title>users:14&#45;&gt;puzzles:7</title>
<path fill="none" stroke="#000000" stroke-dasharray="5,2" d="M138,-326C167.8878,-326 156.264,-293.2565 174,-269.2 243.0226,-175.58 227.4187,-70 343.7322,-70"/>
<text text-anchor="middle" x="240.8661" y="-273.2" font-family="Times,serif" font-size="14.00" fill="#000000">users&#45;puzzles</text>
<text text-anchor="middle" x="338.6789" y="-57.4" font-family="Times,serif" font-size="14.00" fill="#000000">N</text>
<text text-anchor="middle" x="134.5" y="-330.2" font-family="Times,serif" font-size="14.00" fill="#000000">1</text>
</g>
</g>
</svg>
